<svg xmlns="http://www.w3.org/2000/svg" viewBox="0 0 48 48" fill="currentColor">
  <path d="M 24 1 A 23 23 0 0 0 1 24 A 23 23 0 0 0 24 47 A 23 23 0 0 0 47 24 A 23 23 0 0 0 24 1 z M 21.386719 11.455078 L 26.613281 11.455078 L 26.613281 19.472656 L 34.462891 14.941406 L 37.076172 19.46875 L 29.228516 24 L 37.076172 28.53125 L 34.462891 33.058594 L 26.613281 28.527344 L 26.613281 36.544922 L 21.386719 36.544922 L 21.386719 28.527344 L 13.537109 33.058594 L 10.923828 28.53125 L 18.771484 24 L 10.923828 19.46875 L 13.537109 14.941406 L 21.386719 19.472656 L 21.386719 11.455078 z "/>
</svg>
